HIERARCHY
ROOT hip
{
	OFFSET 0.000000 0.000000 0.000000 
	CHANNELS 6 Xposition Yposition Zposition Xrotation Zrotation Yrotation
	JOINT abdomen
	{
		OFFSET 0.000000 3.402643 0.000000 
		CHANNELS 3 Xrotation Zrotation Yrotation
		JOINT chest
		{
			OFFSET 0.000000 8.438565 -0.680529 
			CHANNELS 3 Xrotation Zrotation Yrotation
			JOINT neck
			{
				OFFSET 0.000000 10.207942 -0.272212 
				CHANNELS 3 Xrotation Zrotation Yrotation
				JOINT head
				{
					OFFSET 0.000000 3.130431 0.000000 
					CHANNELS 3 Xrotation Zrotation Yrotation
					End Site
					{
						OFFSET 0.000000 3.130435 0.000000 
					}
				}
			}
			JOINT lCollar
			{
				OFFSET 3.470700 6.669187 -0.816635 
				CHANNELS 3 Yrotation Zrotation Xrotation
				JOINT lShldr
				{
					OFFSET 3.198488 0.000000 0.000000 
					CHANNELS 3 Zrotation Yrotation Xrotation
					JOINT lForeArm
					{
						OFFSET 10.139888 0.000000 0.000000 
						CHANNELS 3 Yrotation Zrotation Xrotation
						JOINT lHand
						{
							OFFSET 8.370511 0.000000 0.000000 
							CHANNELS 3 Zrotation Yrotation Xrotation
							End Site
							{
								OFFSET 4.083176 0.000000 0.000000 
							}
						}
					}
				}
			}
			JOINT rCollar
			{
				OFFSET -3.470700 6.669187 -0.816635 
				CHANNELS 3 Yrotation Zrotation Xrotation
				JOINT rShldr
				{
					OFFSET -3.198488 0.000000 0.000000 
					CHANNELS 3 Zrotation Yrotation Xrotation
					JOINT rForeArm
					{
						OFFSET -10.139888 0.000000 0.000000 
						CHANNELS 3 Yrotation Zrotation Xrotation
						JOINT rHand
						{
							OFFSET -8.370511 0.000000 0.000000 
							CHANNELS 3 Zrotation Yrotation Xrotation
							End Site
							{
								OFFSET -4.083176 0.000000 0.000000 
							}
						}
					}
				}
			}
		}
	}
	JOINT lThigh
	{
		OFFSET 5.308129 -1.633274 1.361059 
		CHANNELS 3 Xrotation Zrotation Yrotation
		JOINT lShin
		{
			OFFSET -2.041588 -20.007561 0.000000 
			CHANNELS 3 Xrotation Zrotation Yrotation
			JOINT lFoot
			{
				OFFSET 0.000000 -19.190928 -1.224953 
				CHANNELS 3 Xrotation Yrotation Zrotation
				End Site
				{
					OFFSET 0.000000 -2.449906 4.627600 
				}
			}
		}
	}
	JOINT rThigh
	{
		OFFSET -5.308129 -1.633274 1.361059 
		CHANNELS 3 Xrotation Zrotation Yrotation
		JOINT rShin
		{
			OFFSET 2.041588 -20.007561 0.000000 
			CHANNELS 3 Xrotation Zrotation Yrotation
			JOINT rFoot
			{
				OFFSET 0.000000 -19.190928 -1.224953 
				CHANNELS 3 Xrotation Yrotation Zrotation
				End Site
				{
					OFFSET 0.000000 -2.449906 4.627600 
				}
			}
		}
	}
}
MOTION
Frames: 8
Frame Time: 0.033333
5.378895 35.277042 -56.987309 8.261719 8.261719 -64.490784 25.791016 9.199219 7.853123 -19.472656 -3.203125 4.423283 -22.324217 -2.812500 26.708504 12.753906 -0.498047 25.371010 13.212891 17.275391 0.768584 -65.693359 -51.601566 14.941406 -111.835938 -1.904297 -9.160156 14.052735 7.705078 1.495452 -12.392578 -10.273438 0.400391 93.876953 69.130859 39.940765 112.333984 2.451172 -16.669924 -20.322264 -4.824219 1.395665 -60.125809 44.047504 34.199932 92.280098 1.903380 -4.062272 -32.640411 16.530964 3.865404 -27.255674 -42.963882 -23.688236 63.534760 -0.732511 2.903952 -24.329248 17.020784 15.121385 
5.070039 35.500801 -56.039867 10.019531 7.382812 -61.678432 24.716799 9.404297 8.458628 -19.814453 -1.796875 5.117188 -21.982422 -3.642578 25.205074 13.798828 -0.322266 23.828123 14.833984 17.988279 0.800781 -54.248047 -59.179688 -0.389246 -111.640625 -2.070312 -9.775037 12.539063 9.326173 1.622678 -13.642579 -12.363283 0.556641 100.000000 78.505859 40.497856 111.406242 2.568359 -21.513672 -19.941406 -4.707031 1.250000 -60.476604 42.503677 32.419872 92.451698 2.265027 -4.069994 -33.705334 16.240610 4.268868 -21.289513 -41.057373 -26.654957 59.848530 -0.690787 2.985035 -22.878399 14.057573 13.108977 
4.559337 35.949131 -54.758770 11.777345 6.152344 -57.293873 23.134764 9.404297 8.457032 -20.507813 -0.214844 5.283166 -20.927736 -4.179688 22.958982 15.029297 -0.498047 21.582033 16.074219 18.867189 0.849609 -37.041019 -64.716797 -21.494141 -110.009766 -2.109375 -11.914063 11.748047 10.722657 1.845703 -14.736329 -13.906252 0.625000 111.162109 87.207031 46.240238 109.853508 2.753906 -22.080078 -20.009768 -5.302734 1.582031 -59.754025 39.107002 30.305964 91.759140 2.245537 -4.054923 -35.532753 15.063459 3.733451 -13.224347 -37.874771 -30.015469 53.868832 -0.514790 2.818614 -20.007259 9.041723 10.567809 
3.930379 36.584812 -53.119762 13.007813 4.746094 -51.317551 21.357422 8.769531 8.106957 -21.738281 1.201172 5.254112 -18.974611 -4.619141 19.804688 16.083986 -0.332031 18.632755 17.070313 19.980471 1.022054 -17.177734 -67.275391 -44.433594 -106.298828 -2.304688 -14.443358 10.048828 10.322265 1.445313 -14.941407 -15.400392 0.703125 108.076187 94.746094 38.359341 106.933594 2.744141 -21.083984 -17.695313 -5.644531 1.406250 -57.850399 34.441387 27.771481 90.182037 2.011056 -3.870668 -37.598423 13.014658 3.002224 -5.313042 -33.583492 -30.620337 48.066277 -0.143479 2.712701 -14.203954 0.044991 7.103606 
3.307102 37.277073 -51.137943 13.173827 3.339844 -44.482422 20.097656 7.675781 7.441407 -22.968750 1.904297 5.049153 -17.187500 -5.078125 16.307730 16.445311 0.722656 15.312500 17.871092 20.429688 0.976562 2.529297 -67.539063 -65.117188 -101.123047 -2.314453 -16.396484 8.339844 9.023437 0.996094 -15.576173 -15.839844 0.742187 111.621109 101.396477 39.531059 102.958984 2.675781 -20.771486 -16.230469 -4.892579 1.162109 -54.322849 28.266802 25.854227 87.367668 2.100046 -4.036211 -39.786797 11.677466 2.220162 -0.568899 -29.174809 -25.982367 46.690083 -0.142732 2.663430 -6.385944 -12.140045 5.553436 
2.784574 37.915192 -48.986847 12.480469 2.460938 -37.265205 19.707031 6.025390 6.807666 -23.496094 1.552734 4.863545 -15.732422 -5.205078 12.617188 16.269531 2.128906 11.787108 18.193359 20.322266 1.070827 17.929689 -66.796883 -80.819527 -95.537109 -2.500000 -18.407776 7.763673 8.173829 0.850999 -15.576173 -15.673829 0.791016 113.164078 106.894531 40.478096 98.027344 2.607422 -19.277786 -16.035154 -4.931641 1.005020 -49.647491 21.659237 23.534830 84.559998 1.406684 -4.026022 -41.006161 9.969715 1.315045 -0.919418 -25.825886 -17.279264 53.018837 -0.297907 2.693101 -1.337240 -20.197466 6.227199 
2.382736 38.429142 -46.865551 11.064453 1.933594 -30.419924 20.029297 4.423828 5.987081 -23.320311 0.673828 4.687615 -14.775392 -5.683593 8.955078 15.742188 3.359375 8.252525 18.134768 19.882813 0.875585 26.953125 -67.099609 -89.921097 -89.248047 -2.519531 -19.814024 6.601562 6.123046 0.371094 -15.312500 -15.400392 0.566406 112.353523 110.419922 40.184929 92.519531 2.460938 -17.773436 -14.687501 -6.152344 1.259766 -45.008541 15.809600 21.659407 81.751396 1.622313 -3.914325 -42.508911 8.299000 -0.001533 -4.941430 -23.306255 -10.278163 65.260887 -1.146809 3.428875 -0.877897 -14.205282 6.400776 
2.069010 38.845585 -44.872242 9.492188 1.757813 -24.267578 21.250000 2.988281 5.225118 -22.441406 -0.556641 4.531163 -14.873048 -5.400391 5.742188 15.400390 4.062500 5.078125 18.134768 19.882813 0.875585 32.070313 -69.707031 -95.497444 -84.140625 -2.636719 -20.019081 6.591797 5.068359 0.371099 -15.175782 -15.019531 0.546875 106.943359 111.171875 35.517578 86.904297 2.373047 -15.771482 -13.847657 -7.226563 1.318359 -39.909081 11.228514 19.508348 78.966560 1.241857 -3.750382 -43.434654 6.042179 -1.760558 -11.931835 -21.021326 -7.316140 79.298088 -2.128274 3.413877 -2.653179 -2.362390 6.798203 
